<?xml version="1.0" encoding="UTF-8"?><svg id="Layer_2" xmlns="http://www.w3.org/2000/svg" viewBox="0 0 105.86035 13.59473"><defs><style>.cls-1{fill:#fcf8f1;}</style></defs><g id="Layer_1-2"><g><path class="cls-1" d="M6.51807,9.52539c-.16211-1.42285-.36035-2.44922-1.80078-2.44922H2.50293v4.79004c0,.77344,.37793,1.02539,1.31396,1.02539h.36035v.14453h-.6665c-.55811,0-1.00781-.05371-1.69238-.05371-.59424,0-.9541,.05371-1.42236,.05371h-.396v-.14453H.01807c.73828,0,.9541-.19727,.9541-1.00781V1.92676C.97217,1.11621,.75635,.91895,.01807,.91895h-.01807v-.14453H.396c.43213,0,.79248,.01758,1.35059,.01758s.99023-.01758,1.42236-.01758h3.979c.50439,0,.68408-.19824,.64844-.54004l.10791-.03613,1.58447,4.15918-.12598,.05371c-1.0083-1.4043-1.60254-2.25-2.12451-2.79004-.52246-.54004-.99023-.66699-1.71094-.66699H2.50293V6.87793h2.21436c1.44043,0,1.63867-.99023,1.80078-2.43066h.14404v5.07812h-.14404Z"/><path class="cls-1" d="M9.3418,8.625c0-2.61133,1.80078-4.55566,3.96143-4.55566s3.96094,1.94434,3.96094,4.55566c0,2.61035-1.80029,4.55566-3.96094,4.55566s-3.96143-1.94531-3.96143-4.55566Zm6.26611,0c0-3.61914-.91846-4.41113-2.30469-4.41113-1.38672,0-2.30469,.79199-2.30469,4.41113s.91797,4.41113,2.30469,4.41113c1.38623,0,2.30469-.79199,2.30469-4.41113Z"/><path class="cls-1" d="M26.64258,13.03613c-.48633,0-.79248-.03613-1.38672-.03613-.3418,0-.54004,.03613-.73828,.03613v-1.18848l-1.85449,.73828c-.93604,.36035-1.62061,.59473-2.23242,.59473-.70215,0-1.13477-.34277-1.13477-1.29688V5.92383c0-.75586-.16162-.97168-.97217-.97168h-.03564v-.14453h.21582c.81006,0,1.9624-.32422,2.14258-.75586h.10791v7.86816c0,.57617,.21631,.82812,.63037,.82812,.396,0,.93652-.19824,1.42236-.39648l1.71045-.68359V5.92383c0-.75586-.16211-.97168-.97217-.97168h-.03613v-.14453h.21631c.81006,0,1.9624-.32422,2.14258-.75586h.10791v7.86816c0,.75586,.16211,.99023,.97217,.99023h.03613v.12598h-.3418Z"/><path class="cls-1" d="M36.47021,13.03613c-.48633,0-.81055-.05371-1.40479-.05371-.59375,0-.91797,.05371-1.38623,.05371h-.34229v-.12598h.03613c.81055,0,.9541-.23438,.9541-.99023V5.33008c0-.57617-.19775-.82812-.61182-.82812-.396,0-.93652,.21582-1.44043,.39551l-1.78271,.68457v6.33789c0,.75586,.14404,.99023,.97217,.99023h.01807v.12598h-.32422c-.48584,0-.81006-.05371-1.4043-.05371s-.91797,.05371-1.38623,.05371h-.34229v-.12598h.03613c.81006,0,.9541-.23438,.9541-.99023V5.92383c0-.75586-.14404-.97168-.9541-.97168h-.03613v-.14453h.21631c.81006,0,1.94434-.32422,2.14258-.75586h.10791v1.36816l1.94482-.75586c.88232-.34277,1.60205-.59473,2.21436-.59473,.72021,0,1.15234,.3418,1.15234,1.29688v6.55371c0,.75586,.14404,.99023,.97266,.99023h.01758v.12598h-.32373Z"/><path class="cls-1" d="M37.92578,8.625c0-3.36719,1.78223-4.55566,3.34863-4.55566,1.20654,0,2.10693,.62988,2.66504,1.11621V1.89062c0-.77441-.16211-.99023-.97266-.99023h-.03564v-.12598h.21582c.81055,0,1.96289-.3418,2.14258-.77441h.1084V11.91992c0,.75586,.16162,.99023,.97217,.99023h.03613v.12598h-.34229c-.48633,0-.79248-.03613-1.38623-.03613-.34229,0-.54053,.03613-.73828,.03613v-.97266c-.54004,.46875-1.4585,1.11719-2.66504,1.11719-1.56641,0-3.34863-1.18848-3.34863-4.55566Zm6.01367,3.22266V5.40137c-.55811-.48535-1.42236-1.13379-2.55664-1.13379-1.02637,0-1.80078,.59375-1.80078,4.35742,0,3.7627,.77441,4.35742,1.80078,4.35742,1.13428,0,1.99854-.64844,2.55664-1.13477Z"/><path class="cls-1" d="M47.46533,8.76855c0-3.00684,1.98047-4.69922,3.96143-4.69922,1.65625,0,3.33105,1.18848,3.25879,3.29492h-5.56348c-.01807,.23438-.01807,.46875-.01807,.70215,0,2.55664,1.08008,4.51953,2.82666,4.51953,1.11621,0,2.08887-.59375,2.64697-2.23242l.12598,.03613c-.55811,1.78223-1.72852,2.79102-3.40283,2.79102-1.90869,0-3.83545-1.6748-3.83545-4.41211Zm3.87109-4.55469c-1.26025,0-2.03467,1.16992-2.19678,2.98828h4.10547c-.03613-2.30469-.93652-2.98828-1.90869-2.98828Z"/><path class="cls-1" d="M59.25586,13.03613c-.55811,0-.93604-.05371-1.62061-.05371-.59424,0-.8999,.05371-1.38623,.05371h-.34229v-.12598h.03613c.81006,0,.97217-.23438,.97217-.99023V5.92383c0-.75586-.16211-.97168-.97217-.97168h-.03613v-.14453h.21631c.81006,0,1.94434-.32422,2.14258-.75586h.10791v2.12402c.43213-.66602,.84619-1.16992,1.27832-1.54785,.32422-.30664,.75635-.55859,1.36865-.55859,.48633,0,.79199,.23438,.79199,.57617,0,.36035-.27002,.59473-.77393,.59473-.396,0-.79248-.23438-1.20654-.23438-.48633,0-.99023,.68457-1.4585,1.42188v5.49219c0,.75586,.34229,.99023,1.17041,.99023h.27002v.12598h-.55811Z"/><path class="cls-1" d="M63.75537,12.82031c-.25195,0-.46777,.14355-.43213,.39551l-.10791,.01855-.88232-3.20508,.1084-.05371c1.26025,2.68262,2.77246,3.06055,3.63672,3.06055,1.38672,0,2.08887-.79199,2.08887-1.74609,0-.90039-.72021-1.5127-2.03467-2.0166l-1.26025-.46875c-1.33252-.50391-2.05273-1.35059-2.05273-2.48438,0-1.33301,.99023-2.25098,2.48486-2.25098,.84619,0,1.4043,.30664,1.98047,.30664,.27002,0,.50391-.14453,.46826-.39648l.10791-.01758,.86426,3.04199-.10791,.05469c-1.18848-2.59277-2.64697-2.84473-3.31299-2.84473-1.20654,0-1.71045,.68359-1.71045,1.34961,0,.75684,.54004,1.31445,1.9624,1.85547l1.22412,.48535c1.44043,.57617,2.21484,1.27832,2.21484,2.53906,0,1.74609-1.33252,2.7373-2.93506,2.7373-.97217,0-1.62012-.36035-2.30469-.36035Z"/><path class="cls-1" d="M81.19873,13.59473l-.10791-.01855c.03564-.30566-.1084-.54004-.6123-.54004h-3.81738c-.4502,0-.79199-.01758-1.3501-.01758s-.91846,.01758-1.35059,.01758h-.396v-.14453h.01807c.73828,0,.9541-.19727,.9541-1.00781V1.92676c0-.81055-.21582-1.00781-.9541-1.00781h-.01807v-.14453h.396c.43213,0,.79248,.05371,1.35059,.05371s.8999-.05371,1.3501-.05371h.39648v.14453h-.03613c-.73828,0-.9541,.19727-.9541,1.00781V12.85645h2.79053c.70215,0,1.13428-.09082,1.74658-.75684,.57617-.62988,1.35059-1.87207,2.23242-3.29492l.12646,.05371-1.76465,4.73633Z"/><path class="cls-1" d="M89.08203,12.00977c-.70215,.59473-1.78271,1.1709-2.84521,1.1709-1.47607,0-2.39453-.88281-2.39453-2.28711,0-1.54883,1.33252-2.44922,2.88086-3.0791l2.32275-.93652v-1.45801c0-.84668-.14404-1.18848-.88232-1.18848-1.22412,0-2.03467,.73828-2.77295,1.80078-.21582,.30566-.396,.50391-.68408,.50391-.27002,0-.54004-.21582-.54004-.55859,0-.82812,2.10645-1.9082,4.14111-1.9082,1.69238,0,2.19678,.66602,2.19678,1.78223v6.24805c0,.4502,.16211,.64844,.4502,.64844,.32373,0,.61182-.32422,.81006-.70215l.10791,.05371c-.21582,.48633-.72021,1.08105-1.58447,1.08105-.79199,0-1.17041-.52246-1.20605-1.1709Zm-.01807-.17969c0-.03613-.01807-.23438-.01807-.4502V7.04004l-2.0166,.82812c-1.36865,.57617-1.56641,1.56641-1.56641,2.91699,0,1.26074,.30615,2.125,1.15234,2.125,.75586,0,1.74658-.48633,2.44873-1.08008Z"/><path class="cls-1" d="M101.75488,13.01855c-.27002,0-.48633,.01758-.79199,.01758l-2.37695-6.48242-1.74658,5.02441,.52197,1.45801c-.3418,0-.52197-.01758-.77393-.01758s-.50439,.01758-.79248,.01758l-2.88086-7.74219c-.27002-.73828-.57617-.9541-1.20605-.9541v-.12598h.4502c.3418,0,.72021,.05371,1.31445,.05371,.59375,0,.9541-.05371,1.27832-.05371h.46777v.12598c-.52197,0-.84619,.10742-.84619,.46777,0,.08984,.01807,.19824,.0542,.30664l2.30469,6.22949,1.76465-5.02344-.36035-1.02637c-.27002-.73828-.57617-.9541-1.20605-.9541v-.12598h.44971c.36035,0,.70264,.05371,1.29639,.05371,.59424,0,.97266-.05371,1.29639-.05371h.46826v.12598c-.52197,0-.84619,.10742-.84619,.46777,0,.08984,.01807,.21582,.0542,.30664l2.26855,6.22949,1.85449-5.25781c.08984-.25195,.16211-.55762,.16211-.81055,0-.62988-.41406-.93555-1.22461-.93555v-.12598h.18018c.46826,0,.86426,.05371,1.36865,.05371,.52197,0,.93604-.05371,1.31445-.05371h.28809v.12598c-1.02637,.03613-1.58496,.80957-1.94482,1.83594l-1.90869,5.40234,.54004,1.45801c-.35986,0-.54004-.01758-.79199-.01758Z"/></g></g></svg>